<svg width="52" height="49" viewBox="0 0 52 49" fill="none" xmlns="http://www.w3.org/2000/svg">
<path fill-rule="evenodd" clip-rule="evenodd" d="M27.6264 6.34706L5.17969 15.6492V15.284L27.6264 5.98193V6.34706Z" fill="#1F2840"/>
<path fill-rule="evenodd" clip-rule="evenodd" d="M5.15111 15.2834V34.259C5.15111 47.3183 4.8848 47.5854 2.28165 47.5854H1.16601C0.74056 47.5854 0.74056 48.066 1.16601 48.066C2.65353 48.066 6.37389 47.9047 7.17123 47.9047C7.86141 47.9047 30.1852 48.066 31.6191 48.066C32.0446 48.066 32.0446 47.5854 31.6191 47.5854H12.1128C9.50808 47.5854 9.24335 47.3183 9.24335 34.259V13.8513L5.15111 15.2834Z" fill="#1F2840"/>
<path fill-rule="evenodd" clip-rule="evenodd" d="M23.5345 7.73304V34.2594C23.5345 47.3187 23.2682 47.5859 20.665 47.5859H1.1272C0.701742 47.5859 0.701742 48.0648 1.1272 48.0648C2.61471 48.0648 24.7573 47.9051 25.5546 47.9051C26.2448 47.9051 30.1763 48.0648 31.6118 48.0648C32.0373 48.0648 32.0373 47.5859 31.6118 47.5859H30.4962C27.8914 47.5859 27.6267 47.3187 27.6267 34.2594V5.98169L23.5345 7.73304Z" fill="#1F2840"/>
<path fill-rule="evenodd" clip-rule="evenodd" d="M23.5888 15.2832V34.2588C23.5888 47.3181 23.3225 47.5853 20.7194 47.5853H19.6038C19.1783 47.5853 19.1783 48.0658 19.6038 48.0658C21.0913 48.0658 24.8116 47.9046 25.609 47.9046C26.2992 47.9046 48.6229 48.0658 50.0569 48.0658C50.4823 48.0658 50.4823 47.5853 50.0569 47.5853H30.5505C27.9458 47.5853 27.6811 47.3181 27.6811 34.2588V15.2832H23.5888Z" fill="#1F2840"/>
<path fill-rule="evenodd" clip-rule="evenodd" d="M41.9722 15.2832V34.2588C41.9722 47.3181 41.7059 47.5853 39.1028 47.5853H19.5649C19.1395 47.5853 19.1395 48.0658 19.5649 48.0658C21.0525 48.0658 43.195 47.9046 43.9923 47.9046C44.6825 47.9046 48.614 48.0658 50.0495 48.0658C50.475 48.0658 50.475 47.5853 50.0495 47.5853H48.9339C46.3292 47.5853 46.0645 47.3181 46.0645 34.2588V15.2832H41.9722Z" fill="#1F2840"/>
<path fill-rule="evenodd" clip-rule="evenodd" d="M23.6174 15.6482H46.0641V15.2831H23.6174V15.6482Z" fill="#1F2840"/>
<path fill-rule="evenodd" clip-rule="evenodd" d="M23.6174 15.6482H46.0641V15.2831H23.6174V15.6482Z" fill="#1F2840"/>
<path fill-rule="evenodd" clip-rule="evenodd" d="M1.18799 48.0656H50.0491V47.6215H1.18799V48.0656Z" fill="#1F2840"/>
<path fill-rule="evenodd" clip-rule="evenodd" d="M46.0421 15.2833L44.1559 1.28985C44.1259 1.0733 43.8124 1.0733 43.784 1.28985L41.8962 15.2833H46.0421Z" fill="#1F2840"/>
</svg>
